<svg xmlns="http://www.w3.org/2000/svg" width="805" height="600"><rect width="805" height="600" x="0" y="0" fill="#FFFFFF" id="backgorund"/><g transform="translate(20,20)" id="viz"><g id="nodes"><g transform="translate(383.5,281)"><path id="p_944.5" d="M-5.143516556418883e-14,280A280,280,0,1,1,5.143516556418883e-14,-280A280,280,0,1,1,-5.143516556418883e-14,280Z" fill="none" stroke="#ccc"/><text fill="black" text-anchor="middle" font-family="'Arial', sans-serif" font-size="8" dominant-baseline="middle"><textPath href="#p_944.5" startOffset="50%"/></text></g><g transform="translate(272.10147898192344,265.3694652775678)" id="Milanesas"><path id="p_666.2699617675296" d="M-2.3659995678681445e-14,128.79901750803828A128.79901750803828,128.79901750803828,0,1,1,2.3659995678681445e-14,-128.79901750803828A128.79901750803828,128.79901750803828,0,1,1,-2.3659995678681445e-14,128.79901750803828Z" fill="none" stroke="#ccc"/><text fill="black" text-anchor="middle" font-family="'Arial', sans-serif" font-size="8" dominant-baseline="middle"><textPath href="#p_666.2699617675296" startOffset="50%">Milanesas</textPath></text></g><g transform="translate(503.69192718421385,265.3694652775678)" id="Hamburguesas"><path id="p_866.7375878645207" d="M-1.794282600792836e-14,97.67619540273901A97.67619540273901,97.67619540273901,0,1,1,1.794282600792836e-14,-97.67619540273901A97.67619540273901,97.67619540273901,0,1,1,-1.794282600792836e-14,97.67619540273901Z" fill="none" stroke="#ccc"/><text fill="black" text-anchor="middle" font-family="'Arial', sans-serif" font-size="8" dominant-baseline="middle"><textPath href="#p_866.7375878645207" startOffset="50%">Hamburguesas</textPath></text></g><g transform="translate(411.791902073595,399.0798893346905)" id="Comida Italiana"><path id="p_870.3273702916152" d="M-1.0921812655638406e-14,59.45557888332973A59.45557888332973,59.45557888332973,0,1,1,1.0921812655638406e-14,-59.45557888332973A59.45557888332973,59.45557888332973,0,1,1,-1.0921812655638406e-14,59.45557888332973Z" fill="none" stroke="#ccc"/><text fill="black" text-anchor="middle" font-family="'Arial', sans-serif" font-size="8" dominant-baseline="middle"><textPath href="#p_870.3273702916152" startOffset="50%">Comida Italiana</textPath></text></g><g transform="translate(414.3910155489183,107.2576120212118)" id="Comida Asiatica"><path id="p_600.4446715514578" d="M-1.447459845708104e-14,78.79604398132763A78.79604398132763,78.79604398132763,0,1,1,1.447459845708104e-14,-78.79604398132763A78.79604398132763,78.79604398132763,0,1,1,-1.447459845708104e-14,78.79604398132763Z" fill="none" stroke="#ccc"/><text fill="black" text-anchor="middle" font-family="'Arial', sans-serif" font-size="8" dominant-baseline="middle"><textPath href="#p_600.4446715514578" startOffset="50%">Comida Asiatica</textPath></text></g><g transform="translate(300.4687636774473,459.13769764116955)" id="Parrilla"><path id="p_821.525889775155" d="M-1.1374414479649938e-14,61.91942845653811A61.91942845653811,61.91942845653811,0,1,1,1.1374414479649938e-14,-61.91942845653811A61.91942845653811,61.91942845653811,0,1,1,-1.1374414479649938e-14,61.91942845653811Z" fill="none" stroke="#ccc"/><text fill="black" text-anchor="middle" font-family="'Arial', sans-serif" font-size="8" dominant-baseline="middle"><textPath href="#p_821.525889775155" startOffset="50%">Parrilla</textPath></text></g><g transform="translate(286.69858757744834,86.61058546128848)" id="Helado"><path id="p_418.74879583857285" d="M-8.347123292442341e-15,45.43962279983602A45.43962279983602,45.43962279983602,0,1,1,8.347123292442341e-15,-45.43962279983602A45.43962279983602,45.43962279983602,0,1,1,-8.347123292442341e-15,45.43962279983602Z" fill="none" stroke="#ccc"/><text fill="black" text-anchor="middle" font-family="'Arial', sans-serif" font-size="8" dominant-baseline="middle"><textPath href="#p_418.74879583857285" startOffset="50%">Helado</textPath></text></g><g transform="translate(536.0684865120309,427.9944489086304)" id="Comida Sana"><path id="p_1027.0880506285325" d="M-1.1577525840781911e-14,63.02511520787129A63.02511520787129,63.02511520787129,0,1,1,1.1577525840781911e-14,-63.02511520787129A63.02511520787129,63.02511520787129,0,1,1,-1.1577525840781911e-14,63.02511520787129Z" fill="none" stroke="#ccc"/><text fill="black" text-anchor="middle" font-family="'Arial', sans-serif" font-size="8" dominant-baseline="middle"><textPath href="#p_1027.0880506285325" startOffset="50%">Comida Sana</textPath></text></g><g transform="translate(529.307609180852,131.47663926961593)" id="Pollo Frito"><path id="p_694.3139533902346" d="M-6.1593068746260705e-15,33.52970493976669A33.52970493976669,33.52970493976669,0,1,1,6.1593068746260705e-15,-33.52970493976669A33.52970493976669,33.52970493976669,0,1,1,-6.1593068746260705e-15,33.52970493976669Z" fill="none" stroke="#ccc"/><text fill="black" text-anchor="middle" font-family="'Arial', sans-serif" font-size="8" dominant-baseline="middle"><textPath href="#p_694.3139533902346" startOffset="50%">Pollo Frito</textPath></text></g><g transform="translate(208.11536024161165,419.8762089174554)" id="Pizza"><path id="p_661.3093623963061" d="M-6.120379326395736e-15,33.31779323723914A33.31779323723914,33.31779323723914,0,1,1,6.120379326395736e-15,-33.31779323723914A33.31779323723914,33.31779323723914,0,1,1,-6.120379326395736e-15,33.31779323723914Z" fill="none" stroke="#ccc"/><text fill="black" text-anchor="middle" font-family="'Arial', sans-serif" font-size="8" dominant-baseline="middle"><textPath href="#p_661.3093623963061" startOffset="50%">Pizza</textPath></text></g><g transform="translate(208.45498449741916,112.35019441924175)" id="Comida Mexicana"><path id="p_352.61893676763225" d="M-5.844092508156159e-15,31.813757850971367A31.813757850971367,31.813757850971367,0,1,1,5.844092508156159e-15,-31.813757850971367A31.813757850971367,31.813757850971367,0,1,1,-5.844092508156159e-15,31.813757850971367Z" fill="none" stroke="#ccc"/><text fill="black" text-anchor="middle" font-family="'Arial', sans-serif" font-size="8" dominant-baseline="middle"><textPath href="#p_352.61893676763225" startOffset="50%">Comida Mexicana</textPath></text></g><g transform="translate(224.93983329988072,265.3694652775678)" id="El Club de la Milanesa Barrio Norte"><path id="p_566.831435111931" d="M-1.4056888435630593e-14,76.52213653448241A76.52213653448241,76.52213653448241,0,1,1,1.4056888435630593e-14,-76.52213653448241A76.52213653448241,76.52213653448241,0,1,1,-1.4056888435630593e-14,76.52213653448241Z" fill="rgb(8, 48, 107)" stroke="none"/></g><g transform="translate(351.1812331621624,265.3694652775678)" id="Milanga &amp; Co"><path id="p_661.1547264760163" d="M-8.193627024557492e-15,44.60402803628613A44.60402803628613,44.60402803628613,0,1,1,8.193627024557492e-15,-44.60402803628613A44.60402803628613,44.60402803628613,0,1,1,-8.193627024557492e-15,44.60402803628613Z" fill="rgb(216, 231, 245)" stroke="none"/></g><g transform="translate(311.2129588258747,329.55517451660745)" id="La Farola Express - Flores"><path id="p_666.6614894901334" d="M-4.756532358810546e-15,25.89335614765133A25.89335614765133,25.89335614765133,0,1,1,4.756532358810546e-15,-25.89335614765133A25.89335614765133,25.89335614765133,0,1,1,-4.756532358810546e-15,25.89335614765133Z" fill="rgb(231, 241, 250)" stroke="none"/></g><g transform="translate(485.34315576779267,271.61006166501136)" id="Dean &amp; Dennys - Puerto Madero"><path id="p_795.7796211803671" d="M-7.132294660778398e-15,38.826403747563134A38.826403747563134,38.826403747563134,0,1,1,7.132294660778398e-15,-38.826403747563134A38.826403747563134,38.826403747563134,0,1,1,-7.132294660778398e-15,38.826403747563134Z" fill="rgb(177, 210, 232)" stroke="none"/></g><g transform="translate(559.9452539809754,271.61006166501136)" id="Burgertify - Av Córdoba"><path id="p_862.2157748200932" d="M-5.632234978193642e-15,30.660459174106492A30.660459174106492,30.660459174106492,0,1,1,5.632234978193642e-15,-30.660459174106492A30.660459174106492,30.660459174106492,0,1,1,-5.632234978193642e-15,30.660459174106492Z" fill="rgb(241, 247, 253)" stroke="none"/></g><g transform="translate(529.9004743095563,326.0822136328481)" id="Perez H- San Telmo"><path id="p_882.4155469522614" d="M-4.855637426810169e-15,26.432859009856845A26.432859009856845,26.432859009856845,0,1,1,4.855637426810169e-15,-26.432859009856845A26.432859009856845,26.432859009856845,0,1,1,-4.855637426810169e-15,26.432859009856845Z" fill="rgb(244, 249, 254)" stroke="none"/></g><g transform="translate(529.7504568647664,218.79396411941403)" id="Mostaza - MF2"><path id="p_773.6067568354199" d="M-4.603876406906468e-15,25.06233585123954A25.06233585123954,25.06233585123954,0,1,1,4.603876406906468e-15,-25.06233585123954A25.06233585123954,25.06233585123954,0,1,1,-4.603876406906468e-15,25.06233585123954Z" fill="rgb(246, 250, 255)" stroke="none"/></g><g transform="translate(476.88423992984656,203.26879397833085)" id="The Food Truck Store"><path id="p_705.0741723775343" d="M-4.577938868640892e-15,24.921138469356944A24.921138469356944,24.921138469356944,0,1,1,4.577938868640892e-15,-24.921138469356944A24.921138469356944,24.921138469356944,0,1,1,-4.577938868640892e-15,24.921138469356944Z" fill="rgb(244, 249, 254)" stroke="none"/></g><g transform="translate(411.791902073595,399.0798893346905)" id="Il Quotidiano - Bar de Pastas"><path id="p_865.2121350001021" d="M-9.982159176642835e-15,54.340343591816584A54.340343591816584,54.340343591816584,0,1,1,9.982159176642835e-15,-54.340343591816584A54.340343591816584,54.340343591816584,0,1,1,-9.982159176642835e-15,54.340343591816584Z" fill="rgb(239, 246, 253)" stroke="none"/></g><g transform="translate(380.00461960566395,106.21963826134076)" id="Wok tu Wok - San Telmo"><path id="p_517.1026171922479" d="M-5.6722625865871344e-15,30.878359325243192A30.878359325243192,30.878359325243192,0,1,1,5.6722625865871344e-15,-30.878359325243192A30.878359325243192,30.878359325243192,0,1,1,-5.6722625865871344e-15,30.878359325243192Z" fill="rgb(234, 243, 251)" stroke="none"/></g><g transform="translate(444.58601993372963,106.21963826134076)" id="Sensu - Patio Bullrich"><path id="p_579.3934639063797" d="M-5.251494713850212e-15,28.587805711309347A28.587805711309347,28.587805711309347,0,1,1,5.251494713850212e-15,-28.587805711309347A28.587805711309347,28.587805711309347,0,1,1,-5.251494713850212e-15,28.587805711309347Z" fill="rgb(246, 250, 255)" stroke="none"/></g><g transform="translate(414.4076392266899,156.23058838069034)" id="Woks &amp; Bowls - Congreso"><path id="p_595.3460571162964" d="M-4.5387546482958946e-15,24.70782950891611A24.70782950891611,24.70782950891611,0,1,1,4.5387546482958946e-15,-24.70782950891611A24.70782950891611,24.70782950891611,0,1,1,-4.5387546482958946e-15,24.70782950891611Z" fill="rgb(245, 250, 254)" stroke="none"/></g><g transform="translate(414.3740706004221,57.33817941928518)" id="Sensu - Galerías Pacífico"><path id="p_495.47362323164833" d="M-4.364893447102383e-15,23.76137321194101A23.76137321194101,23.76137321194101,0,1,1,4.364893447102383e-15,-23.76137321194101A23.76137321194101,23.76137321194101,0,1,1,-4.364893447102383e-15,23.76137321194101Z" fill="rgb(245, 250, 254)" stroke="none"/></g><g transform="translate(272.85793188797186,443.7370791319463)" id="Juan Bautista Parrilla Gaucha"><path id="p_741.7837477977052" d="M-4.627095880422329e-15,25.188736777787106A25.188736777787106,25.188736777787106,0,1,1,4.627095880422329e-15,-25.188736777787106A25.188736777787106,25.188736777787106,0,1,1,-4.627095880422329e-15,25.188736777787106Z" fill="rgb(247, 251, 255)" stroke="none"/></g><g transform="translate(328.2242398085117,443.7370791319463)" id="Pippo"><path id="p_797.0236547916975" d="M-4.603876406906468e-15,25.06233585123954A25.06233585123954,25.06233585123954,0,1,1,4.603876406906468e-15,-25.06233585123954A25.06233585123954,25.06233585123954,0,1,1,-4.603876406906468e-15,25.06233585123954Z" fill="rgb(245, 250, 254)" stroke="none"/></g><g transform="translate(300.66656574908234,491.2191736602157)" id="Parrilla El Gaucho"><path id="p_816.6078467752329" d="M-4.541377448080405e-15,24.722107365934892A24.722107365934892,24.722107365934892,0,1,1,4.541377448080405e-15,-24.722107365934892A24.722107365934892,24.722107365934892,0,1,1,-4.541377448080405e-15,24.722107365934892Z" fill="rgb(236, 244, 252)" stroke="none"/></g><g transform="translate(286.69858757744834,86.61058546128848)" id="Cadore"><path id="p_413.6335605470597" d="M-7.407469813446766e-15,40.32438750832287A40.32438750832287,40.32438750832287,0,1,1,7.407469813446766e-15,-40.32438750832287A40.32438750832287,40.32438750832287,0,1,1,-7.407469813446766e-15,40.32438750832287Z" fill="rgb(242, 248, 253)" stroke="none"/></g><g transform="translate(508.44853301503474,427.9944489086304)" id="Green Eat- Florida"><path id="p_966.7329083430271" d="M-5.564169215382081e-15,30.289926419362015A30.289926419362015,30.289926419362015,0,1,1,5.564169215382081e-15,-30.289926419362015A30.289926419362015,30.289926419362015,0,1,1,-5.564169215382081e-15,30.289926419362015Z" fill="rgb(222, 235, 247)" stroke="none"/></g><g transform="translate(568.9160305771494,427.9944489086304)" id="Tea Connection - Florida"><path id="p_1021.9728153370193" d="M-4.603876406906468e-15,25.06233585123954A25.06233585123954,25.06233585123954,0,1,1,4.603876406906468e-15,-25.06233585123954A25.06233585123954,25.06233585123954,0,1,1,-4.603876406906468e-15,25.06233585123954Z" fill="rgb(233, 242, 250)" stroke="none"/></g><g transform="translate(529.307609180852,131.47663926961593)" id="KFC - Galerías Pacífico"><path id="p_689.1987180987214" d="M-5.219653395630496e-15,28.414469648253533A28.414469648253533,28.414469648253533,0,1,1,5.219653395630496e-15,-28.414469648253533A28.414469648253533,28.414469648253533,0,1,1,-5.219653395630496e-15,28.414469648253533Z" fill="rgb(214, 230, 244)" stroke="none"/></g><g transform="translate(208.11536024161165,419.8762089174554)" id="Chemuzza - Obelisco"><path id="p_656.194127104793" d="M-5.1807258474001614e-15,28.202557945725985A28.202557945725985,28.202557945725985,0,1,1,5.1807258474001614e-15,-28.202557945725985A28.202557945725985,28.202557945725985,0,1,1,-5.1807258474001614e-15,28.202557945725985Z" fill="rgb(245, 250, 254)" stroke="none"/></g><g transform="translate(208.45498449741916,112.35019441924175)" id="La Fábrica del Taco - San Telmo"><path id="p_347.5037014761191" d="M-4.904439029160585e-15,26.698522559458212A26.698522559458212,26.698522559458212,0,1,1,4.904439029160585e-15,-26.698522559458212A26.698522559458212,26.698522559458212,0,1,1,-4.904439029160585e-15,26.698522559458212Z" fill="rgb(247, 251, 255)" stroke="none"/></g></g><g id="labels"><g transform="translate(224.93983329988072,265.3694652775678)"><text text-anchor="middle" dominant-baseline="text-before-edge" transform="translate(0,-5.5)" style="stroke-width: 2px; paint-order: stroke; stroke: white; stroke-linecap: round; stroke-linejoin: round;"><tspan x="0" y="0" dy="0" style="font-family: Arial, sans-serif; font-size: 10px; fill: black; font-weight: normal;">El Club de la Milanesa Barrio Norte</tspan></text></g><g transform="translate(351.1812331621624,265.3694652775678)"><text text-anchor="middle" dominant-baseline="text-before-edge" transform="translate(0,-5.5)" style="stroke-width: 2px; paint-order: stroke; stroke: white; stroke-linecap: round; stroke-linejoin: round;"><tspan x="0" y="0" dy="0" style="font-family: Arial, sans-serif; font-size: 10px; fill: black; font-weight: normal;">Milanga &amp; Co</tspan></text></g><g transform="translate(311.2129588258747,329.55517451660745)"><text text-anchor="middle" dominant-baseline="text-before-edge" transform="translate(0,-5.5)" style="stroke-width: 2px; paint-order: stroke; stroke: white; stroke-linecap: round; stroke-linejoin: round;"><tspan x="0" y="0" dy="0" style="font-family: Arial, sans-serif; font-size: 10px; fill: black; font-weight: normal;">La Farola Express - Flores</tspan></text></g><g transform="translate(485.34315576779267,271.61006166501136)"><text text-anchor="middle" dominant-baseline="text-before-edge" transform="translate(0,-5.5)" style="stroke-width: 2px; paint-order: stroke; stroke: white; stroke-linecap: round; stroke-linejoin: round;"><tspan x="0" y="0" dy="0" style="font-family: Arial, sans-serif; font-size: 10px; fill: black; font-weight: normal;">Dean &amp; Dennys - Puerto Madero</tspan></text></g><g transform="translate(559.9452539809754,271.61006166501136)"><text text-anchor="middle" dominant-baseline="text-before-edge" transform="translate(0,-5.5)" style="stroke-width: 2px; paint-order: stroke; stroke: white; stroke-linecap: round; stroke-linejoin: round;"><tspan x="0" y="0" dy="0" style="font-family: Arial, sans-serif; font-size: 10px; fill: black; font-weight: normal;">Burgertify - Av Córdoba</tspan></text></g><g transform="translate(529.9004743095563,326.0822136328481)"><text text-anchor="middle" dominant-baseline="text-before-edge" transform="translate(0,-5.5)" style="stroke-width: 2px; paint-order: stroke; stroke: white; stroke-linecap: round; stroke-linejoin: round;"><tspan x="0" y="0" dy="0" style="font-family: Arial, sans-serif; font-size: 10px; fill: black; font-weight: normal;">Perez H- San Telmo</tspan></text></g><g transform="translate(529.7504568647664,218.79396411941403)"><text text-anchor="middle" dominant-baseline="text-before-edge" transform="translate(0,-5.5)" style="stroke-width: 2px; paint-order: stroke; stroke: white; stroke-linecap: round; stroke-linejoin: round;"><tspan x="0" y="0" dy="0" style="font-family: Arial, sans-serif; font-size: 10px; fill: black; font-weight: normal;">Mostaza - MF2</tspan></text></g><g transform="translate(476.88423992984656,203.26879397833085)"><text text-anchor="middle" dominant-baseline="text-before-edge" transform="translate(0,-5.5)" style="stroke-width: 2px; paint-order: stroke; stroke: white; stroke-linecap: round; stroke-linejoin: round;"><tspan x="0" y="0" dy="0" style="font-family: Arial, sans-serif; font-size: 10px; fill: black; font-weight: normal;">The Food Truck Store</tspan></text></g><g transform="translate(411.791902073595,399.0798893346905)"><text text-anchor="middle" dominant-baseline="text-before-edge" transform="translate(0,-5.5)" style="stroke-width: 2px; paint-order: stroke; stroke: white; stroke-linecap: round; stroke-linejoin: round;"><tspan x="0" y="0" dy="0" style="font-family: Arial, sans-serif; font-size: 10px; fill: black; font-weight: normal;">Il Quotidiano - Bar de Pastas</tspan></text></g><g transform="translate(380.00461960566395,106.21963826134076)"><text text-anchor="middle" dominant-baseline="text-before-edge" transform="translate(0,-5.5)" style="stroke-width: 2px; paint-order: stroke; stroke: white; stroke-linecap: round; stroke-linejoin: round;"><tspan x="0" y="0" dy="0" style="font-family: Arial, sans-serif; font-size: 10px; fill: black; font-weight: normal;">Wok tu Wok - San Telmo</tspan></text></g><g transform="translate(444.58601993372963,106.21963826134076)"><text text-anchor="middle" dominant-baseline="text-before-edge" transform="translate(0,-5.5)" style="stroke-width: 2px; paint-order: stroke; stroke: white; stroke-linecap: round; stroke-linejoin: round;"><tspan x="0" y="0" dy="0" style="font-family: Arial, sans-serif; font-size: 10px; fill: black; font-weight: normal;">Sensu - Patio Bullrich</tspan></text></g><g transform="translate(414.4076392266899,156.23058838069034)"><text text-anchor="middle" dominant-baseline="text-before-edge" transform="translate(0,-5.5)" style="stroke-width: 2px; paint-order: stroke; stroke: white; stroke-linecap: round; stroke-linejoin: round;"><tspan x="0" y="0" dy="0" style="font-family: Arial, sans-serif; font-size: 10px; fill: black; font-weight: normal;">Woks &amp; Bowls - Congreso</tspan></text></g><g transform="translate(414.3740706004221,57.33817941928518)"><text text-anchor="middle" dominant-baseline="text-before-edge" transform="translate(0,-5.5)" style="stroke-width: 2px; paint-order: stroke; stroke: white; stroke-linecap: round; stroke-linejoin: round;"><tspan x="0" y="0" dy="0" style="font-family: Arial, sans-serif; font-size: 10px; fill: black; font-weight: normal;">Sensu - Galerías Pacífico</tspan></text></g><g transform="translate(272.85793188797186,443.7370791319463)"><text text-anchor="middle" dominant-baseline="text-before-edge" transform="translate(0,-5.5)" style="stroke-width: 2px; paint-order: stroke; stroke: white; stroke-linecap: round; stroke-linejoin: round;"><tspan x="0" y="0" dy="0" style="font-family: Arial, sans-serif; font-size: 10px; fill: black; font-weight: normal;">Juan Bautista Parrilla Gaucha</tspan></text></g><g transform="translate(328.2242398085117,443.7370791319463)"><text text-anchor="middle" dominant-baseline="text-before-edge" transform="translate(0,-5.5)" style="stroke-width: 2px; paint-order: stroke; stroke: white; stroke-linecap: round; stroke-linejoin: round;"><tspan x="0" y="0" dy="0" style="font-family: Arial, sans-serif; font-size: 10px; fill: black; font-weight: normal;">Pippo</tspan></text></g><g transform="translate(300.66656574908234,491.2191736602157)"><text text-anchor="middle" dominant-baseline="text-before-edge" transform="translate(0,-5.5)" style="stroke-width: 2px; paint-order: stroke; stroke: white; stroke-linecap: round; stroke-linejoin: round;"><tspan x="0" y="0" dy="0" style="font-family: Arial, sans-serif; font-size: 10px; fill: black; font-weight: normal;">Parrilla El Gaucho</tspan></text></g><g transform="translate(286.69858757744834,86.61058546128848)"><text text-anchor="middle" dominant-baseline="text-before-edge" transform="translate(0,-5.5)" style="stroke-width: 2px; paint-order: stroke; stroke: white; stroke-linecap: round; stroke-linejoin: round;"><tspan x="0" y="0" dy="0" style="font-family: Arial, sans-serif; font-size: 10px; fill: black; font-weight: normal;">Cadore</tspan></text></g><g transform="translate(508.44853301503474,427.9944489086304)"><text text-anchor="middle" dominant-baseline="text-before-edge" transform="translate(0,-5.5)" style="stroke-width: 2px; paint-order: stroke; stroke: white; stroke-linecap: round; stroke-linejoin: round;"><tspan x="0" y="0" dy="0" style="font-family: Arial, sans-serif; font-size: 10px; fill: black; font-weight: normal;">Green Eat- Florida</tspan></text></g><g transform="translate(568.9160305771494,427.9944489086304)"><text text-anchor="middle" dominant-baseline="text-before-edge" transform="translate(0,-5.5)" style="stroke-width: 2px; paint-order: stroke; stroke: white; stroke-linecap: round; stroke-linejoin: round;"><tspan x="0" y="0" dy="0" style="font-family: Arial, sans-serif; font-size: 10px; fill: black; font-weight: normal;">Tea Connection - Florida</tspan></text></g><g transform="translate(529.307609180852,131.47663926961593)"><text text-anchor="middle" dominant-baseline="text-before-edge" transform="translate(0,-5.5)" style="stroke-width: 2px; paint-order: stroke; stroke: white; stroke-linecap: round; stroke-linejoin: round;"><tspan x="0" y="0" dy="0" style="font-family: Arial, sans-serif; font-size: 10px; fill: black; font-weight: normal;">KFC - Galerías Pacífico</tspan></text></g><g transform="translate(208.11536024161165,419.8762089174554)"><text text-anchor="middle" dominant-baseline="text-before-edge" transform="translate(0,-5.5)" style="stroke-width: 2px; paint-order: stroke; stroke: white; stroke-linecap: round; stroke-linejoin: round;"><tspan x="0" y="0" dy="0" style="font-family: Arial, sans-serif; font-size: 10px; fill: black; font-weight: normal;">Chemuzza - Obelisco</tspan></text></g><g transform="translate(208.45498449741916,112.35019441924175)"><text text-anchor="middle" dominant-baseline="text-before-edge" transform="translate(0,-5.5)" style="stroke-width: 2px; paint-order: stroke; stroke: white; stroke-linecap: round; stroke-linejoin: round;"><tspan x="0" y="0" dy="0" style="font-family: Arial, sans-serif; font-size: 10px; fill: black; font-weight: normal;">La Fábrica del Taco - San Telmo</tspan></text></g></g></g></svg>